<svg width="20" height="14" fill="none" xmlns="http://www.w3.org/2000/svg"><rect width="20" height="14" rx="1" fill="#fff"/><mask id="a" maskUnits="userSpaceOnUse" x="1" y="1" width="18" height="12"><path fill="#fff" d="M1 1h18v12H1z"/></mask><g mask="url(#a)"><path d="M17.805 13H2.188A1.183 1.183 0 0 1 1 11.824V2.176C1 1.527 1.533 1 2.188 1h15.625C18.466 1 19 1.527 19 2.176v9.655A1.192 1.192 0 0 1 17.805 13z" fill="#4758A9"/><path d="M.199 12.55l.68 1.054L19.817 1.381l-.68-1.054L.199 12.55z" fill="#fff"/><path d="M.557 12.514l.503.779L19.452 1.42 18.95.643.557 12.514z" fill="#ED5565"/><path d="M.879.328l-.68 1.054 18.937 12.223.68-1.054L.88.328z" fill="#fff"/><path d="M1.06.64l-.503.778L18.95 13.289l.502-.778L1.06.64z" fill="#ED5565"/><path d="M11.475.473H8.361v13.183h3.114V.473z" fill="#fff"/><path d="M19.342 5.51H.502v3.115h18.84V5.51z" fill="#fff"/><path d="M11.076 1H8.767v12.328h2.309V1z" fill="#ED5565"/><path d="M19.071 5.91H.772v2.308h18.3V5.91z" fill="#ED5565"/></g></svg>